# xmcd
#
# Track frame offsets:
#	150
#	17761
#	41060
#
# Disc length: 936 seconds
#
# Revision: 0
# Processed by: cddbd v1.4PL0 Copyright (c) Steve Scherf et al.
# Submitted via: audiograbber 1.80
#
DISCID=1d03a603
DTITLE=Run DMC Feat. Jacknife Lee - n/a
DYEAR=1900
DGENRE=
TTITLE0=It's Tricky 2003
TTITLE1=Peter Piper 2003 (Riton Remix)
TTITLE2=It's Tricky 2003 (JKL Club Mix)
EXTD=
EXTT0=
EXTT1=
EXTT2=
PLAYORDER=
